<svg width="10" height="18" viewBox="0 0 10 18" fill="none" xmlns="http://www.w3.org/2000/svg">
<path d="M3.36037 9.00381L9.7282 2.26976C9.90354 2.08478 10 1.83746 10 1.57376C10 1.3099 9.90354 1.06273 9.7282 0.877463L9.17022 0.287707C8.99516 0.102146 8.76114 0 8.51176 0C8.26239 0 8.02865 0.102146 7.85345 0.287707L0.271523 8.30517C0.0956305 8.49102 -0.000688238 8.73937 3.70763e-06 9.00337C-0.000688238 9.26854 0.0954922 9.51659 0.271523 9.70259L7.84639 17.7123C8.02159 17.8979 8.25533 18 8.50484 18C8.75422 18 8.98796 17.8979 9.1633 17.7123L9.72115 17.1225C10.0841 16.7387 10.0841 16.1138 9.72115 15.7301L3.36037 9.00381Z" fill="black"/>
</svg>
