<svg width="10" height="18" viewBox="0 0 10 18" fill="none" xmlns="http://www.w3.org/2000/svg">
<path d="M6.63963 8.99619L0.271796 15.7302C0.0964577 15.9152 1.11431e-06 16.1625 1.09126e-06 16.4262C1.06819e-06 16.6901 0.0964576 16.9373 0.271796 17.1225L0.829781 17.7123C1.00484 17.8979 1.23886 18 1.48824 18C1.73761 18 1.97135 17.8979 2.14655 17.7123L9.72848 9.69483C9.90437 9.50898 10.0007 9.26063 10 8.99663C10.0007 8.73146 9.90451 8.48341 9.72848 8.29741L2.15361 0.287708C1.97841 0.102147 1.74467 -7.21704e-07 1.49516 -7.43517e-07C1.24578 -7.65318e-07 1.01204 0.102147 0.836702 0.287707L0.278856 0.877463C-0.0841384 1.26132 -0.0841384 1.8862 0.278856 2.2699L6.63963 8.99619Z" fill="black"/>
</svg>
